<svg width="10" height="10" viewBox="0 0 10 10" fill="none" xmlns="http://www.w3.org/2000/svg">
<path d="M9.32958 2.49019C8.88246 1.72418 8.27596 1.11768 7.50993 0.670577C6.74376 0.223495 5.90738 0 5.00015 0C4.09301 0 3.25638 0.223495 2.49035 0.670577C1.72427 1.11761 1.11777 1.72411 0.670645 2.49019C0.223495 3.25631 0 4.09294 0 5.00001C0 5.90713 0.223564 6.74362 0.670577 7.50979C1.11768 8.2758 1.72418 8.8823 2.49026 9.32945C3.25638 9.77651 4.09294 10 5.00006 10C5.90717 10 6.74383 9.77651 7.5099 9.32945C8.27593 8.88246 8.88241 8.2758 9.32949 7.50979C9.77651 6.74369 9.99998 5.90708 9.99998 5.00001C10 4.09285 9.77651 3.2562 9.32958 2.49019ZM5.83354 8.12502C5.83354 8.18572 5.81388 8.23569 5.77487 8.27468C5.73601 8.3137 5.68605 8.33322 5.62535 8.33322H4.3752C4.31445 8.33322 4.26451 8.3137 4.22545 8.27468C4.18637 8.23566 4.16685 8.18572 4.16685 8.12502V6.87488C4.16685 6.81417 4.18634 6.76421 4.22545 6.72522C4.26451 6.68627 4.31445 6.66677 4.3752 6.66677H5.62535C5.68605 6.66677 5.73601 6.68627 5.77487 6.72522C5.81388 6.76423 5.83354 6.81417 5.83354 6.87488V8.12502ZM7.41878 4.27731C7.36446 4.43791 7.30376 4.56928 7.23649 4.67123C7.16924 4.77323 7.0726 4.87742 6.94668 4.98371C6.82104 5.09004 6.72114 5.16604 6.64716 5.21169C6.57351 5.25719 6.46706 5.31917 6.32833 5.3972C6.18505 5.47959 6.06689 5.58706 5.97362 5.7195C5.88029 5.85185 5.83363 5.95923 5.83363 6.04162C5.83363 6.10251 5.81398 6.15242 5.77494 6.19146C5.73601 6.23048 5.68607 6.24997 5.62535 6.24997H4.37527C4.31452 6.24997 4.26458 6.23048 4.22552 6.19146C4.18641 6.15242 4.16696 6.10251 4.16696 6.04162V5.80723C4.16696 5.51644 4.28082 5.24396 4.50871 4.99014C4.73661 4.7362 4.98726 4.54848 5.26075 4.42694C5.46894 4.33149 5.61657 4.2338 5.70336 4.13399C5.79028 4.03418 5.83368 3.90167 5.83368 3.73682C5.83368 3.59355 5.75222 3.46553 5.58943 3.35261C5.42664 3.2398 5.24122 3.18339 5.03283 3.18339C4.80707 3.18339 4.6205 3.23549 4.47289 3.3397C4.32962 3.4438 4.14304 3.64349 3.91298 3.93859C3.87392 3.99071 3.81964 4.01682 3.75019 4.01682C3.6981 4.01682 3.65685 4.00383 3.6265 3.97785L2.76718 3.32677C2.66737 3.24863 2.65002 3.15753 2.71505 3.05334C3.27068 2.12885 4.07577 1.6666 5.13042 1.6666C5.50811 1.6666 5.8771 1.7556 6.23732 1.93358C6.59752 2.11147 6.89814 2.36324 7.1391 2.68881C7.37976 3.01425 7.50042 3.36805 7.50042 3.75C7.5001 3.94096 7.47287 4.11666 7.41878 4.27731Z" fill="#C2C2C2"/>
</svg>
