<svg width="50" height="50" viewBox="0 0 50 50" fill="none" xmlns="http://www.w3.org/2000/svg">
<path d="M50 25C50 11.2155 38.7845 0 25 0C11.2155 0 0 11.2155 0 25C0 32.2809 3.13091 38.8436 8.11454 43.4164L8.09091 43.4373L8.90182 44.1209C8.95454 44.1655 9.01182 44.2018 9.06454 44.2454C9.49545 44.6027 9.94182 44.9418 10.3964 45.27C10.5436 45.3764 10.6909 45.4827 10.8409 45.5864C11.3264 45.9209 11.8245 46.2382 12.3336 46.5391C12.4445 46.6045 12.5564 46.6682 12.6682 46.7318C13.2255 47.0491 13.7945 47.3482 14.3773 47.6227C14.42 47.6427 14.4636 47.6609 14.5064 47.6809C16.4055 48.5636 18.4327 49.2118 20.5527 49.5945C20.6082 49.6045 20.6636 49.6145 20.72 49.6245C21.3782 49.7382 22.0436 49.8291 22.7173 49.89C22.7991 49.8973 22.8809 49.9018 22.9636 49.9091C23.6345 49.9645 24.3127 50 25 50C25.6809 50 26.3527 49.9645 27.02 49.9109C27.1045 49.9036 27.1891 49.8991 27.2736 49.8918C27.9418 49.8309 28.6018 49.7427 29.2536 49.6309C29.31 49.6209 29.3673 49.6109 29.4236 49.6C31.5118 49.2255 33.51 48.5918 35.3845 47.7318C35.4536 47.7 35.5236 47.67 35.5927 47.6373C36.1536 47.3736 36.7018 47.0891 37.2391 46.7864C37.3727 46.7109 37.5055 46.6345 37.6382 46.5564C38.1273 46.2682 38.6082 45.9673 39.0755 45.6473C39.2436 45.5327 39.4082 45.4118 39.5745 45.2918C39.9736 45.0045 40.3654 44.7082 40.7464 44.3982C40.8309 44.33 40.9218 44.2709 41.0045 44.2009L41.8364 43.5064L41.8118 43.4855C46.8391 38.9109 50 32.3182 50 25ZM1.81818 25C1.81818 12.2173 12.2173 1.81818 25 1.81818C37.7827 1.81818 48.1818 12.2173 48.1818 25C48.1818 31.8882 45.1591 38.0809 40.3736 42.33C40.1064 42.1455 39.8373 41.98 39.5618 41.8418L31.8645 37.9936C31.1736 37.6482 30.7445 36.9536 30.7445 36.1818V33.4936C30.9227 33.2736 31.1109 33.0245 31.3055 32.7509C32.3018 31.3436 33.1009 29.7782 33.6836 28.0936C34.8354 27.5464 35.5791 26.3991 35.5791 25.1036V21.8809C35.5791 21.0927 35.29 20.3282 34.7727 19.7273V15.4845C34.82 15.0127 34.9873 12.35 33.0609 10.1536C31.3855 8.24091 28.6736 7.27273 25 7.27273C21.3264 7.27273 18.6145 8.24091 16.9391 10.1527C15.0127 12.3491 15.18 15.0118 15.2273 15.4836V19.7264C14.7109 20.3273 14.4209 21.0918 14.4209 21.88V25.1027C14.4209 26.1036 14.87 27.0373 15.6391 27.6673C16.3755 30.5518 17.8909 32.7355 18.4509 33.4755V36.1064C18.4509 36.8482 18.0464 37.53 17.3945 37.8864L10.2064 41.8073C9.97727 41.9318 9.75 42.0773 9.52273 42.24C4.79636 37.9927 1.81818 31.8382 1.81818 25ZM38.5991 43.7564C38.2809 43.9873 37.9573 44.2109 37.6291 44.4245C37.4782 44.5227 37.3282 44.6209 37.1745 44.7164C36.7454 44.9818 36.3091 45.2345 35.8636 45.4709C35.7655 45.5227 35.6664 45.5718 35.5673 45.6227C34.5436 46.1473 33.4845 46.5982 32.3964 46.9645C32.3582 46.9773 32.32 46.9909 32.2809 47.0036C31.7109 47.1927 31.1336 47.3609 30.55 47.5055C30.5482 47.5055 30.5464 47.5064 30.5445 47.5064C29.9555 47.6518 29.3591 47.7727 28.7591 47.8718C28.7427 47.8745 28.7264 47.8782 28.71 47.8809C28.1455 47.9727 27.5764 48.0391 27.0055 48.0891C26.9045 48.0982 26.8036 48.1045 26.7018 48.1118C26.1373 48.1545 25.57 48.1818 25 48.1818C24.4236 48.1818 23.8491 48.1536 23.2773 48.1109C23.1782 48.1036 23.0791 48.0973 22.9809 48.0882C22.4045 48.0373 21.8309 47.9691 21.2627 47.8764C21.2373 47.8718 21.2118 47.8673 21.1864 47.8627C19.9845 47.6618 18.8018 47.3664 17.65 46.98C17.6145 46.9682 17.5782 46.9555 17.5427 46.9436C16.9709 46.7491 16.4055 46.5336 15.85 46.2954C15.8464 46.2936 15.8418 46.2918 15.8382 46.29C15.3127 46.0636 14.7973 45.8127 14.2882 45.5482C14.2218 45.5136 14.1545 45.4809 14.0891 45.4454C13.6245 45.1973 13.17 44.9291 12.7218 44.6491C12.5891 44.5654 12.4573 44.4809 12.3264 44.3955C11.9136 44.1255 11.5064 43.8445 11.11 43.5473C11.0691 43.5164 11.03 43.4836 10.9891 43.4527C11.0182 43.4364 11.0473 43.42 11.0764 43.4036L18.2645 39.4827C19.5009 38.8082 20.2691 37.5145 20.2691 36.1064L20.2682 32.8318L20.0591 32.5791C20.0391 32.5564 18.0736 30.1655 17.3309 26.9282L17.2482 26.5682L16.9382 26.3673C16.5009 26.0845 16.2391 25.6118 16.2391 25.1018V21.8791C16.2391 21.4564 16.4182 21.0627 16.7455 20.7673L17.0455 20.4964V15.4327L17.0373 15.3136C17.0345 15.2918 16.7664 13.1055 18.3064 11.35C19.6209 9.85182 21.8736 9.09091 25 9.09091C28.1145 9.09091 30.36 9.84545 31.6782 11.3327C33.2164 13.07 32.9645 15.2973 32.9627 15.3155L32.9545 20.4982L33.2545 20.7691C33.5809 21.0636 33.7609 21.4582 33.7609 21.8809V25.1036C33.7609 25.7518 33.32 26.34 32.6873 26.5355L32.2355 26.6745L32.09 27.1245C31.5536 28.7909 30.79 30.33 29.8209 31.6991C29.5827 32.0354 29.3509 32.3336 29.1518 32.5618L28.9264 32.8191V36.1818C28.9264 37.6473 29.7409 38.9655 31.0518 39.62L38.7491 43.4682C38.7982 43.4927 38.8464 43.5182 38.8945 43.5436C38.7973 43.6173 38.6973 43.6855 38.5991 43.7564Z" fill="#848484"/>
</svg>
