<svg width="79" height="79" viewBox="0 0 79 79" fill="none" xmlns="http://www.w3.org/2000/svg">
<path d="M39.5 0C17.6831 0 0 17.6831 0 39.5C0 61.3166 17.6831 79 39.5 79C61.3166 79 79 61.3166 79 39.5C79 17.6831 61.3166 0 39.5 0ZM58.4009 42.6713L34.8395 58.8803C34.184 59.3292 33.4211 59.5588 32.6561 59.5588C32.0404 59.5588 31.4291 59.4125 30.8662 59.1184C29.6011 58.4492 28.8066 57.1373 28.8066 55.7094V23.291C28.8066 21.8631 29.6011 20.5511 30.8662 19.8818C32.1313 19.2182 33.6599 19.3096 34.8395 20.1199L58.4009 36.3287C59.4434 37.0465 60.0682 38.234 60.0682 39.5C60.0682 40.766 59.4437 41.9535 58.4009 42.6713Z" fill="white"/>
</svg>
