<svg width="46" height="45" viewBox="0 0 46 45" fill="none" xmlns="http://www.w3.org/2000/svg">
<g clip-path="url(#clip0)">
<path d="M23.2705 0C10.8432 0 0.770508 10.0727 0.770508 22.5C0.770508 34.9272 10.8432 45 23.2705 45C35.6977 45 45.7705 34.9272 45.7705 22.5C45.7705 10.0727 35.6977 0 23.2705 0ZM34.0368 24.3064L20.6158 33.5394C20.2424 33.7951 19.8078 33.9259 19.3721 33.9259C19.0214 33.9259 18.6732 33.8426 18.3525 33.675C17.6319 33.2938 17.1793 32.5466 17.1793 31.7332V13.267C17.1793 12.4537 17.6319 11.7063 18.3525 11.3251C19.0732 10.9471 19.9439 10.9992 20.6158 11.4607L34.0368 20.6936C34.6307 21.1024 34.9866 21.7788 34.9866 22.5C34.9866 23.2212 34.6308 23.8976 34.0368 24.3064Z" fill="white"/>
</g>
<defs>
<clipPath id="clip0">
<rect width="45" height="45" fill="white" transform="translate(0.770508)"/>
</clipPath>
</defs>
</svg>
