<svg width="23" height="23" viewBox="0 0 23 23" fill="none" xmlns="http://www.w3.org/2000/svg">
<path d="M10.634 1.5C11.0189 0.833333 11.9811 0.833333 12.366 1.5L20.5933 15.75C20.9782 16.4167 20.497 17.25 19.7272 17.25H3.27276C2.50296 17.25 2.02183 16.4167 2.40673 15.75L10.634 1.5Z" fill="#FFD80E"/>
<path d="M12.2381 12.7698H10.8319L10.6326 6.85767H12.4373L12.2381 12.7698ZM11.535 13.6956C11.8201 13.6956 12.0487 13.7795 12.2205 13.9475C12.3963 14.1155 12.4842 14.3303 12.4842 14.592C12.4842 14.8499 12.3963 15.0627 12.2205 15.2307C12.0487 15.3987 11.8201 15.4827 11.535 15.4827C11.2537 15.4827 11.0252 15.3987 10.8494 15.2307C10.6776 15.0627 10.5916 14.8499 10.5916 14.592C10.5916 14.3342 10.6776 14.1213 10.8494 13.9534C11.0252 13.7815 11.2537 13.6956 11.535 13.6956Z" fill="black"/>
</svg>
